<svg width="480" height="384" viewBox="0 0 480 384" xmlns="http://www.w3.org/2000/svg"><g fill-rule="evenodd" fill-opacity=".15"><path d="M91.486 236.985l-4.238-6.701c-1.237-2.654-2.542-5.278-3.697-7.968-6.49-15.141-7.284-30.604-2.41-46.33 6.005-19.377 18.886-32.695 36.712-41.748 8.426-4.28 17.258-7.424 26.251-10.178 13.296-4.074 24.887-10.762 33.428-21.975 5.812-7.63 11.4-15.435 16.987-23.231 8.804-12.288 18.623-23.61 30.677-32.858 1.53-1.172 2.997-2.424 4.494-3.64 3.086-1.95 6.17-3.901 9.254-5.853.687-.289 1.382-.557 2.059-.868 6.03-2.765 11.885-6.02 18.111-8.226 25.756-9.123 51.63-8.947 77.329.253 20.048 7.17 36.844 19.07 50.415 35.555 7.739 9.398 13.89 19.704 18.405 30.964 6.945 17.316 9.533 35.349 8.529 53.96-.76 14.009-3.646 27.653-6.722 41.28-2.645 11.73-5.082 23.55-4.655 35.62.357 10.214 1.479 20.407 2.427 30.595 1.873 20.12 1.446 40.054-4.647 59.53-6.715 21.457-19.085 38.943-37.396 52.048-6.441 4.609-13.416 8.418-20.922 11.06-15.2 5.344-30.771 6.812-46.678 4.007-15.996-2.82-30.14-9.76-42.886-19.647-11.183-8.676-20.924-18.856-30.285-29.43-7.108-8.029-14.407-15.879-22.68-22.753-13.86-11.52-29.136-20.907-44.84-29.621-10.43-5.789-21.037-11.25-31.466-17.045-10.105-5.61-19.226-12.525-26.845-21.3-1.584-1.824-3.142-3.666-4.71-5.5M440.22 365.087c-4.904-4.232-8.15-8.58-10.532-13.653a47.025 47.025 0 0 1-3.699-11.568c-.747-4.09-1.048-8.246-.98-12.415a92.77 92.77 0 0 1 2.03-17.944c1.409-6.58 3.75-12.774 7.357-18.415 1.325-2.071 2.768-4.12 4.66-5.773 1.432-1.25 2.682-2.743 4.223-3.825 2.242-1.574 4.596-3.034 7.043-4.261 4.92-2.47 10.214-3.425 15.708-3.104 3.005.175 6.04.342 8.99.906 3.06.585 6.043 1.612 9.042 2.507 2.54.758 5.07 1.56 7.577 2.424 3.665 1.265 7.4 2.386 10.935 3.962 4.5 2.007 9.035 4.056 12.83 7.353 3.68 3.196 6.638 6.983 8.284 11.598 1.442 4.04 1.642 8.23.862 12.492-.86 4.71-3.092 8.71-6.042 12.28-2.155 2.608-4.688 4.897-7.404 6.952-2.238 1.695-4.519 3.355-6.582 5.248-2.172 1.994-4.384 3.978-6.136 6.398-2.485 3.432-4.96 6.874-7.503 10.262-2.236 2.977-4.852 5.594-7.654 8.038a29.876 29.876 0 0 1-7.608 4.828c-5.186 2.29-10.553 3.698-16.34 3.101-3.44-.354-6.835-.816-10.04-2.188-1.563-.669-3.108-1.411-4.57-2.277-1.78-1.052-3.464-2.27-4.452-2.926z"/><path d="M60.087 260.992c-5.832 0-11.616-.561-17.268-2.436-12.353-4.095-22.65-12.01-30.564-24.379-5.05-7.892-8.592-16.719-10.458-26.398C-.03 198.3-.379 188.646.368 178.896c.792-10.32 2.887-20.289 5-30.258 1.67-7.865 3.502-15.684 5.385-23.48 2.02-8.367 4.182-16.686 6.287-25.022 1.509-5.981 2.608-12.177 4.623-17.896 4.422-12.544 9.616-24.597 16.579-35.454 8.678-13.534 19.2-24.368 31.637-32.297 7.945-5.065 16.337-8.855 25.217-11.064 7.44-1.849 14.95-3.184 22.464-2.81 9.441.47 18.784 2.19 27.94 5.62 10.524 3.944 20.128 9.99 28.865 17.833 13.644 12.254 23.973 28.03 31.047 46.838 3.912 10.404 6.595 21.365 7.76 32.65 1.418 13.739 1.047 27.481-1.357 41.193-2.054 11.712-5.304 22.762-10.064 33.136-5.325 11.604-12.08 21.837-20.172 30.882-8.79 9.824-18.722 17.462-29.537 23.185-7.95 4.207-16.338 7.282-24.662 10.324-13.028 4.763-26.151 9.139-39.265 13.545-9.16 3.079-18.45 5.283-28.028 5.171z"/></g></svg>