<svg width="300" height="233" viewBox="0 0 300 233" xmlns="http://www.w3.org/2000/svg"><g fill-rule="evenodd" fill-opacity=".15"><path d="M303.99 270.415c.222 11.172-3.455 28.575-11.597 44.629-9.36 18.457-18.682 37.087-29.897 54.392-24.413 37.673-59.578 56.002-104.156 54.543-52.522-1.72-99.487-43.817-108.362-96.36-4.122-24.41-2.08-48.233 8.771-70.381 10.138-20.69 20.55-41.52 33.386-60.522 42.664-63.163 131.278-68.711 181.944-12.05 19.882 22.235 29.75 48.67 29.912 85.749"/><path d="M-57.954 289.586c-5.663-9.695-10.897-19.678-17.09-29.014-8.794-13.253-18.044-26.22-27.568-38.955-8.708-11.644-16.503-23.72-18.27-38.427-2.893-24.132 7.246-42.506 25.994-56.621 7.647-5.759 15.522-11.221 23.056-17.123 12.181-9.54 19.288-22.782 26.012-36.42 6.423-13.026 12.304-26.64 20.753-38.27C6.6-8.833 69.28-10.429 106.438 25.754c12.291 11.968 19.604 26.853 24.391 43.081 3.47 11.756 6.606 23.61 9.77 35.452 4.883 18.29 13.56 34.957 21.908 51.765 10.705 21.552 17.869 44.026 17.301 68.367-1.345 57.661-35.837 106.118-89.12 121.275-52.295 14.877-98.324 1.794-135.627-39.443-1.926-2.127-3.942-4.194-5.637-6.497-2.474-3.362-4.694-6.914-7.023-10.385l-.355.217"/></g></svg>