<svg xmlns="http://www.w3.org/2000/svg" width="24" height="24" viewBox="0 0 24 24" fill="none" class="injected-svg fill-current" data-src="https://secure.meetupstatic.com/next/images/design-system-icons/globe-outline.svg" xmlns:xlink="http://www.w3.org/1999/xlink" style="width:20px;height:20px" data-icon="icon-1"><title>icon</title>
<path fill-rule="evenodd" clip-rule="evenodd" d="M12 20.5C12.923 20.5 14.0148 19.8686 14.9564 18.2993C15.2318 17.8404 15.4801 17.3207 15.6931 16.75H8.30689C8.51988 17.3207 8.76824 17.8404 9.0436 18.2993C9.98519 19.8686 11.077 20.5 12 20.5ZM7.85918 15.25C7.62983 14.2559 7.5 13.1607 7.5 12C7.5 10.8393 7.62983 9.74411 7.85918 8.75H16.1408C16.3702 9.74411 16.5 10.8393 16.5 12C16.5 13.1607 16.3702 14.2559 16.1408 15.25H7.85918ZM17.2812 16.75C16.939 17.8048 16.4863 18.7455 15.949 19.5289C17.1985 18.8722 18.2645 17.9136 19.05 16.75H17.2812ZM19.8565 15.25H17.676C17.886 14.231 18 13.1377 18 12C18 10.8623 17.886 9.76896 17.676 8.75H19.8565C20.2712 9.75122 20.5 10.8489 20.5 12C20.5 13.1511 20.2712 14.2488 19.8565 15.25ZM6.32399 15.25H4.14345C3.72882 14.2488 3.5 13.1511 3.5 12C3.5 10.8489 3.72882 9.75122 4.14345 8.75H6.32399C6.114 9.76896 6 10.8623 6 12C6 13.1377 6.114 14.231 6.32399 15.25ZM4.95003 16.75H6.71877C7.06103 17.8048 7.51372 18.7455 8.05102 19.5289C6.80154 18.8722 5.73554 17.9136 4.95003 16.75ZM8.30689 7.25H15.6931C15.4801 6.67932 15.2318 6.1596 14.9564 5.70068C14.0148 4.13136 12.923 3.5 12 3.5C11.077 3.5 9.98519 4.13136 9.0436 5.70068C8.76824 6.1596 8.51988 6.67932 8.30689 7.25ZM17.2812 7.25H19.05C18.2645 6.08642 17.1985 5.12778 15.949 4.47106C16.4863 5.25453 16.939 6.1952 17.2812 7.25ZM8.05102 4.47106C7.51372 5.25454 7.06102 6.1952 6.71877 7.25H4.95002C5.73554 6.08642 6.80154 5.12778 8.05102 4.47106ZM12 2C17.5228 2 22 6.47715 22 12C22 17.5228 17.5228 22 12 22C6.47715 22 2 17.5228 2 12C2 6.47715 6.47715 2 12 2Z"></path>
</svg>