<svg width="135" height="40" viewBox="0 0 135 40" fill="none" xmlns="http://www.w3.org/2000/svg">
<path d="M130 0H5C2.23858 0 0 2.23858 0 5V35C0 37.7614 2.23858 40 5 40H130C132.761 40 135 37.7614 135 35V5C135 2.23858 132.761 0 130 0Z" fill="black"/>
<path d="M130 0.8C131.114 0.8 132.182 1.2425 132.97 2.03015C133.758 2.8178 134.2 3.88609 134.2 5V35C134.2 36.1139 133.758 37.1822 132.97 37.9698C132.182 38.7575 131.114 39.2 130 39.2H5C3.88609 39.2 2.8178 38.7575 2.03015 37.9698C1.2425 37.1822 0.8 36.1139 0.8 35V5C0.8 3.88609 1.2425 2.8178 2.03015 2.03015C2.8178 1.2425 3.88609 0.8 5 0.8H130ZM130 0H5C3.67392 0 2.40215 0.526784 1.46447 1.46447C0.526784 2.40215 0 3.67392 0 5V35C0 36.3261 0.526784 37.5979 1.46447 38.5355C2.40215 39.4732 3.67392 40 5 40H130C131.326 40 132.598 39.4732 133.536 38.5355C134.473 37.5979 135 36.3261 135 35V5C135 3.67392 134.473 2.40215 133.536 1.46447C132.598 0.526784 131.326 0 130 0Z" fill="#A6A6A6"/>
<path d="M47.42 10.24C47.437 10.6068 47.3793 10.9732 47.2504 11.317C47.1214 11.6608 46.924 11.9748 46.67 12.24C46.3864 12.5346 46.0439 12.7661 45.6649 12.9195C45.2858 13.0728 44.8787 13.1446 44.47 13.13C43.85 13.1251 43.2452 12.9374 42.7314 12.5904C42.2176 12.2433 41.8177 11.7523 41.5817 11.1789C41.3457 10.6055 41.2842 9.97527 41.4049 9.36709C41.5256 8.75891 41.823 8.19986 42.26 7.76C42.5472 7.46679 42.8915 7.23562 43.2717 7.08082C43.6518 6.92601 44.0597 6.85086 44.47 6.86C44.8928 6.85859 45.3114 6.94367 45.7 7.11C46.0619 7.25596 46.384 7.48556 46.64 7.78L46.11 8.31C45.9104 8.0726 45.6584 7.88486 45.3737 7.76164C45.0891 7.63842 44.7797 7.58308 44.47 7.6C44.1577 7.59847 43.8482 7.66003 43.5602 7.78099C43.2722 7.90195 43.0116 8.07982 42.7941 8.30394C42.5765 8.52806 42.4064 8.7938 42.294 9.08525C42.1816 9.37669 42.1292 9.68783 42.14 10C42.1335 10.4661 42.2651 10.9238 42.5183 11.3152C42.7716 11.7066 43.1351 12.0142 43.5629 12.1993C43.9908 12.3843 44.4639 12.4385 44.9226 12.355C45.3812 12.2715 45.8048 12.054 46.14 11.73C46.4477 11.3965 46.6252 10.9635 46.64 10.51H44.47V9.79H47.38C47.4067 9.93852 47.4201 10.0891 47.42 10.24V10.24ZM52 7.74H49.3V9.64H51.76V10.36H49.3V12.26H52V13H48.5V7H52V7.74ZM55.28 13H54.51V7.74H52.83V7H57V7.74H55.28V13ZM59.94 13V7H60.71V13H59.94ZM64.13 13H63.36V7.74H61.68V7H65.8V7.74H64.13V13ZM73.61 12.22C73.0254 12.8013 72.2345 13.1277 71.41 13.1277C70.5856 13.1277 69.7946 12.8013 69.21 12.22C68.6418 11.6185 68.3252 10.8224 68.3252 9.995C68.3252 9.16756 68.6418 8.37148 69.21 7.77C69.4982 7.47975 69.8409 7.24938 70.2185 7.09217C70.5961 6.93497 71.001 6.85403 71.41 6.85403C71.819 6.85403 72.224 6.93497 72.6015 7.09217C72.9791 7.24938 73.3219 7.47975 73.61 7.77C74.1805 8.37033 74.4986 9.16685 74.4986 9.995C74.4986 10.8232 74.1805 11.6197 73.61 12.22ZM69.78 11.72C70.2129 12.1511 70.799 12.3932 71.41 12.3932C72.021 12.3932 72.6071 12.1511 73.04 11.72C73.4673 11.249 73.7039 10.6359 73.7039 10C73.7039 9.36411 73.4673 8.75098 73.04 8.28C72.6071 7.84888 72.021 7.60683 71.41 7.60683C70.799 7.60683 70.2129 7.84888 69.78 8.28C69.3528 8.75098 69.1161 9.36411 69.1161 10C69.1161 10.6359 69.3528 11.249 69.78 11.72V11.72ZM75.58 13V7H76.52L79.44 11.67V7H80.21V13H79.41L76.36 8.11V13H75.58Z" fill="white" stroke="white" stroke-width="0.2" stroke-miterlimit="10"/>
<path d="M68.14 21.75C67.3003 21.7539 66.4806 22.0066 65.7843 22.476C65.088 22.9453 64.5464 23.6105 64.2278 24.3874C63.9092 25.1643 63.8279 26.0182 63.9941 26.8413C64.1604 27.6644 64.5667 28.4198 65.1619 29.0122C65.757 29.6046 66.5143 30.0074 67.3382 30.1697C68.1621 30.3321 69.0156 30.2468 69.791 29.9245C70.5664 29.6023 71.229 29.0575 71.6951 28.3591C72.1612 27.6606 72.41 26.8397 72.41 26C72.4182 25.4379 72.3131 24.88 72.1012 24.3593C71.8892 23.8387 71.5747 23.366 71.1763 22.9695C70.7778 22.573 70.3037 22.2606 69.7821 22.0511C69.2605 21.8416 68.702 21.7392 68.14 21.75V21.75ZM68.14 28.58C67.6236 28.6161 67.1082 28.496 66.661 28.2354C66.2137 27.9747 65.8552 27.5855 65.632 27.1184C65.4089 26.6513 65.3314 26.1279 65.4097 25.6161C65.488 25.1044 65.7184 24.6281 66.071 24.249C66.4236 23.87 66.882 23.6058 67.3868 23.4908C67.8915 23.3758 68.4192 23.4152 68.9012 23.6041C69.3832 23.7929 69.7973 24.1224 70.0895 24.5497C70.3818 24.977 70.5387 25.4823 70.54 26C70.5561 26.328 70.5064 26.6559 70.3937 26.9644C70.2811 27.2729 70.1078 27.5557 69.8841 27.7962C69.6605 28.0366 69.3909 28.2299 69.0914 28.3645C68.7918 28.4991 68.4683 28.5724 68.14 28.58ZM58.83 21.75C57.9899 21.752 57.1692 22.0029 56.4716 22.4711C55.774 22.9393 55.2308 23.6037 54.9107 24.3805C54.5905 25.1573 54.5078 26.0115 54.6729 26.8352C54.838 27.659 55.2436 28.4153 55.8383 29.0087C56.4331 29.6021 57.1904 30.0059 58.0145 30.1691C58.8387 30.3322 59.6927 30.2475 60.4687 29.9255C61.2447 29.6036 61.9079 29.0588 62.3744 28.3601C62.841 27.6614 63.09 26.8401 63.09 26C63.0982 25.4379 62.9931 24.88 62.7812 24.3593C62.5692 23.8387 62.2547 23.366 61.8563 22.9695C61.4578 22.573 60.9837 22.2606 60.4621 22.0511C59.9405 21.8416 59.382 21.7392 58.82 21.75H58.83ZM58.83 28.58C58.3133 28.6181 57.7971 28.4999 57.3486 28.2406C56.9001 27.9812 56.5401 27.5929 56.3154 27.1261C56.0906 26.6593 56.0117 26.1356 56.0887 25.6233C56.1658 25.111 56.3952 24.6338 56.7473 24.2537C57.0994 23.8736 57.5577 23.6084 58.0627 23.4924C58.5676 23.3765 59.0958 23.4153 59.5784 23.6037C60.061 23.7921 60.4757 24.1215 60.7685 24.5489C61.0613 24.9763 61.2186 25.4819 61.22 26C61.2361 26.328 61.1864 26.6559 61.0737 26.9644C60.9611 27.2729 60.7878 27.5557 60.5641 27.7962C60.3405 28.0366 60.0709 28.2299 59.7714 28.3645C59.4718 28.4991 59.1483 28.5724 58.82 28.58H58.83ZM47.74 23.06V24.86H52.06C51.9923 25.7078 51.6399 26.5078 51.06 27.13C50.6278 27.5702 50.1082 27.9151 49.5347 28.1425C48.9612 28.3698 48.3464 28.4746 47.73 28.45C46.457 28.45 45.2361 27.9443 44.3359 27.0441C43.4357 26.1439 42.93 24.923 42.93 23.65C42.93 22.377 43.4357 21.1561 44.3359 20.2559C45.2361 19.3557 46.457 18.85 47.73 18.85C48.9478 18.8301 50.1238 19.294 51 20.14L52.27 18.87C51.6785 18.271 50.9728 17.7969 50.1946 17.4757C49.4165 17.1544 48.5818 16.9927 47.74 17C46.851 16.9654 45.9642 17.1106 45.1326 17.427C44.3011 17.7433 43.542 18.2243 42.9008 18.841C42.2596 19.4577 41.7494 20.1976 41.401 21.0162C41.0526 21.8348 40.873 22.7153 40.873 23.605C40.873 24.4947 41.0526 25.3752 41.401 26.1938C41.7494 27.0124 42.2596 27.7522 42.9008 28.369C43.542 28.9857 44.3011 29.4667 45.1326 29.783C45.9642 30.0994 46.851 30.2446 47.74 30.21C48.596 30.2487 49.4503 30.1036 50.2454 29.7845C51.0406 29.4654 51.7582 28.9796 52.35 28.36C53.3977 27.2089 53.9571 25.6958 53.91 24.14C53.9132 23.761 53.8797 23.3825 53.81 23.01L47.74 23.06ZM93.05 24.46C92.7892 23.6927 92.3015 23.0228 91.6515 22.5388C91.0015 22.0549 90.2198 21.7798 89.41 21.75C88.863 21.7489 88.3216 21.8601 87.8192 22.0765C87.3169 22.293 86.8643 22.6102 86.4894 23.0085C86.1145 23.4069 85.8253 23.8778 85.6396 24.3924C85.454 24.9069 85.3758 25.4541 85.41 26C85.3979 26.5589 85.4985 27.1145 85.7059 27.6337C85.9133 28.1528 86.2232 28.6249 86.6171 29.0216C87.011 29.4183 87.4808 29.7315 87.9985 29.9426C88.5161 30.1536 89.071 30.2582 89.63 30.25C90.3295 30.2538 91.019 30.084 91.6368 29.7559C92.2546 29.4278 92.7814 28.9516 93.17 28.37L91.72 27.37C91.5036 27.7308 91.1972 28.0292 90.8309 28.236C90.4645 28.4429 90.0507 28.5511 89.63 28.55C89.1968 28.5665 88.7687 28.4523 88.4013 28.2222C88.034 27.9922 87.7443 27.6569 87.57 27.26L93.26 24.91L93.05 24.46ZM87.25 25.88C87.2297 25.5707 87.2714 25.2604 87.3725 24.9674C87.4737 24.6744 87.6322 24.4045 87.839 24.1736C88.0457 23.9426 88.2965 23.7553 88.5765 23.6224C88.8566 23.4896 89.1604 23.414 89.47 23.4C89.7926 23.3787 90.1143 23.4527 90.3952 23.6127C90.6761 23.7727 90.9038 24.0117 91.05 24.3L87.25 25.88ZM82.63 30H84.5V17.5H82.63V30ZM79.57 22.7H79.5C79.2182 22.3849 78.8729 22.1329 78.4869 21.9606C78.1009 21.7882 77.6828 21.6994 77.26 21.7C76.1672 21.753 75.1367 22.2244 74.382 23.0166C73.6273 23.8087 73.2063 24.8609 73.2063 25.955C73.2063 27.0491 73.6273 28.1013 74.382 28.8934C75.1367 29.6856 76.1672 30.157 77.26 30.21C77.6838 30.2171 78.1039 30.1313 78.491 29.9585C78.878 29.7857 79.2224 29.5302 79.5 29.21H79.56V29.82C79.56 31.45 78.69 32.32 77.29 32.32C76.8237 32.3091 76.3712 32.1597 75.9901 31.8908C75.6091 31.6219 75.3166 31.2456 75.15 30.81L73.52 31.49C73.8268 32.2364 74.3496 32.874 75.0213 33.3212C75.6931 33.7685 76.4831 34.0048 77.29 34C79.48 34 81.29 32.71 81.29 29.57V22H79.57V22.7ZM77.43 28.58C76.785 28.5231 76.1846 28.2267 75.7473 27.7492C75.31 27.2716 75.0674 26.6475 75.0674 26C75.0674 25.3524 75.31 24.7284 75.7473 24.2508C76.1846 23.7733 76.785 23.4768 77.43 23.42C77.7498 23.4364 78.0631 23.5167 78.3515 23.656C78.6398 23.7954 78.8973 23.9911 79.1089 24.2315C79.3204 24.4719 79.4817 24.7523 79.5832 25.056C79.6847 25.3597 79.7244 25.6807 79.7 26C79.7273 26.3207 79.6892 26.6436 79.5882 26.9491C79.4871 27.2547 79.3251 27.5366 79.112 27.7778C78.8988 28.019 78.639 28.2144 78.3482 28.3523C78.0574 28.4902 77.7416 28.5676 77.42 28.58H77.43ZM101.81 17.5H97.34V30H99.21V25.26H101.82C102.353 25.2983 102.888 25.2264 103.392 25.0487C103.896 24.8711 104.358 24.5915 104.749 24.2275C105.14 23.8635 105.452 23.4227 105.665 22.9328C105.879 22.4429 105.989 21.9143 105.989 21.38C105.989 20.8457 105.879 20.3171 105.665 19.8272C105.452 19.3373 105.14 18.8965 104.749 18.5325C104.358 18.1685 103.896 17.8889 103.392 17.7113C102.888 17.5336 102.353 17.4617 101.82 17.5H101.81ZM101.81 23.5H99.2V19.24H101.85C102.419 19.24 102.964 19.466 103.367 19.8683C103.769 20.2705 103.995 20.8161 103.995 21.385C103.995 21.9539 103.769 22.4995 103.367 22.9017C102.964 23.304 102.419 23.53 101.85 23.53L101.81 23.5ZM113.34 21.7C112.659 21.6593 111.981 21.8184 111.39 22.1577C110.798 22.497 110.319 23.0018 110.01 23.61L111.67 24.3C111.834 23.9983 112.082 23.7508 112.383 23.5874C112.685 23.4241 113.028 23.352 113.37 23.38C113.607 23.3523 113.848 23.3721 114.078 23.4383C114.307 23.5045 114.521 23.6158 114.708 23.7657C114.894 23.9156 115.048 24.101 115.162 24.3112C115.276 24.5214 115.346 24.7522 115.37 24.99V25.12C114.769 24.802 114.1 24.6371 113.42 24.64C111.63 24.64 109.82 25.64 109.82 27.45C109.838 27.8359 109.933 28.2144 110.099 28.563C110.265 28.9117 110.5 29.2234 110.789 29.4798C111.078 29.7362 111.416 29.932 111.782 30.0557C112.148 30.1794 112.535 30.2285 112.92 30.2C113.391 30.2338 113.862 30.1402 114.285 29.9291C114.707 29.718 115.065 29.397 115.32 29H115.38V30H117.18V25.19C117.18 23 115.52 21.73 113.39 21.73L113.34 21.7ZM113.11 28.55C112.5 28.55 111.65 28.24 111.65 27.49C111.65 26.49 112.71 26.16 113.65 26.16C114.244 26.1453 114.831 26.2904 115.35 26.58C115.287 27.1214 115.031 27.622 114.629 27.9895C114.227 28.357 113.705 28.5667 113.16 28.58L113.11 28.55ZM123.74 22L121.6 27.42H121.54L119.32 22H117.32L120.65 29.58L118.75 33.79H120.7L125.82 22H123.74ZM106.93 30H108.8V17.5H106.93V30Z" fill="white"/>
<path d="M10.44 7.54C10.1141 7.93111 9.94955 8.4318 9.97999 8.94V31.06C9.94955 31.5682 10.1141 32.0689 10.44 32.46L10.51 32.53L22.9 20.15V19.86L10.51 7.47L10.44 7.54Z" fill="url(#paint0_linear)"/>
<path d="M27 24.28L22.9 20.15V19.86L27 15.72L27.09 15.77L32 18.56C33.4 19.35 33.4 20.65 32 21.45L27.11 24.23L27 24.28Z" fill="url(#paint1_linear)"/>
<path d="M27.12 24.22L22.9 20L10.44 32.46C10.7254 32.7109 11.0894 32.8541 11.4692 32.8651C11.849 32.876 12.2207 32.754 12.52 32.52L27.13 24.22" fill="url(#paint2_linear)"/>
<path d="M27.12 15.78L12.51 7.48C12.2106 7.24602 11.839 7.12395 11.4592 7.13491C11.0794 7.14587 10.7154 7.28915 10.43 7.54L22.9 20L27.12 15.78Z" fill="url(#paint3_linear)"/>
<path opacity="0.2" d="M27 24.13L12.51 32.38C12.2213 32.5959 11.8705 32.7125 11.51 32.7125C11.1495 32.7125 10.7987 32.5959 10.51 32.38L10.44 32.45L10.51 32.52C10.7981 32.7374 11.1491 32.855 11.51 32.855C11.8709 32.855 12.2219 32.7374 12.51 32.52L27.12 24.22L27 24.13Z" fill="black"/>
<path opacity="0.12" d="M10.44 32.32C10.1141 31.9289 9.94955 31.4282 9.97999 30.92V31.07C9.94955 31.5782 10.1141 32.0789 10.44 32.47L10.51 32.4L10.44 32.32ZM32 21.3L27 24.13L27.09 24.22L32 21.44C32.2786 21.3091 32.5177 21.1071 32.6933 20.8543C32.8689 20.6014 32.9747 20.3068 33 20C32.9438 20.2787 32.8244 20.5408 32.651 20.7662C32.4777 20.9915 32.2549 21.1742 32 21.3Z" fill="black"/>
<path opacity="0.25" d="M12.51 7.62L32 18.7C32.255 18.8258 32.4777 19.0085 32.651 19.2338C32.8244 19.4592 32.9438 19.7213 33 20C32.9747 19.6932 32.8689 19.3986 32.6933 19.1457C32.5178 18.8929 32.2786 18.6909 32 18.56L12.51 7.48C11.11 6.69 9.97 7.35 9.97 8.95V9.1C10 7.49 11.12 6.83 12.51 7.62V7.62Z" fill="white"/>
<defs>
<linearGradient id="paint0_linear" x1="21.8" y1="8.71" x2="5.01999" y2="25.49" gradientUnits="userSpaceOnUse">
<stop stop-color="#00A0FF"/>
<stop offset="0.01" stop-color="#00A1FF"/>
<stop offset="0.26" stop-color="#00BEFF"/>
<stop offset="0.51" stop-color="#00D2FF"/>
<stop offset="0.76" stop-color="#00DFFF"/>
<stop offset="1" stop-color="#00E3FF"/>
</linearGradient>
<linearGradient id="paint1_linear" x1="33.83" y1="20" x2="9.64" y2="20" gradientUnits="userSpaceOnUse">
<stop stop-color="#FFE000"/>
<stop offset="0.41" stop-color="#FFBD00"/>
<stop offset="0.78" stop-color="#FFA500"/>
<stop offset="1" stop-color="#FF9C00"/>
</linearGradient>
<linearGradient id="paint2_linear" x1="24.83" y1="22.3" x2="2.07" y2="45.05" gradientUnits="userSpaceOnUse">
<stop stop-color="#FF3A44"/>
<stop offset="1" stop-color="#C31162"/>
</linearGradient>
<linearGradient id="paint3_linear" x1="7.29999" y1="0.180003" x2="17.46" y2="10.34" gradientUnits="userSpaceOnUse">
<stop stop-color="#32A071"/>
<stop offset="0.07" stop-color="#2DA771"/>
<stop offset="0.48" stop-color="#15CF74"/>
<stop offset="0.8" stop-color="#06E775"/>
<stop offset="1" stop-color="#00F076"/>
</linearGradient>
</defs>
</svg>
