<?xml version="1.0" encoding="UTF-8"?> <!-- Generator: Adobe Illustrator 20.1.0, SVG Export Plug-In . SVG Version: 6.00 Build 0) --> <svg xmlns="http://www.w3.org/2000/svg" xmlns:xlink="http://www.w3.org/1999/xlink" id="Layer_1" x="0px" y="0px" viewBox="0 0 998.1 952.1" style="enable-background:new 0 0 998.1 952.1;" xml:space="preserve"> <style type="text/css"> .st0{fill:#ED1C40;} .st1{fill:#FFFFFF;} </style> <g> <path class="st0" d="M713.4,827c-19.8,13.7-24.8,40.8-11.1,60.6s40.8,24.7,60.6,11.1c19.8-13.7,24.7-40.8,11.1-60.6 C760.3,818.3,733.2,813.3,713.4,827 M459.2,903.1c-12.2,8.4-15.3,25.2-6.8,37.4c8.4,12.2,25.2,15.3,37.4,6.8 c12.2-8.4,15.3-25.2,6.8-37.4C488.1,897.7,471.4,894.7,459.2,903.1 M150.3,778.2c2.2,10.4,12.5,17.1,23,14.8 c10.4-2.3,17.1-12.5,14.8-23c-2.3-10.4-12.5-17.1-23-14.8C154.7,757.5,148,767.8,150.3,778.2 M75.9,479.2 c13-18.9,8.2-44.8-10.8-57.8c-18.9-13-44.8-8.2-57.8,10.8c-13,18.9-8.2,44.8,10.8,57.8C37,502.9,62.9,498.1,75.9,479.2 M218,211.1 c14.3-9.9,17.9-29.6,8-43.9c-9.9-14.3-29.6-17.9-43.9-8c-14.3,9.9-17.9,29.6-8,43.9C184,217.4,203.7,221,218,211.1 M312.2,17.4 c-2.6-11.9-14.3-19.5-26.3-16.9c-11.9,2.6-19.5,14.3-17,26.3c2.6,11.9,14.3,19.5,26.3,16.9C307.2,41.1,314.7,29.4,312.2,17.4 M594,46.6c-11.7-19.5-37.1-25.9-56.6-14.1c-19.5,11.7-25.9,37.1-14.1,56.6c11.7,19.5,37.1,25.9,56.6,14.1 C599.4,91.5,605.7,66.2,594,46.6 M796.4,341.5c3.1-40.9-7.1-83.1-32.2-119.5c-49-70.9-138.6-97-216-68.9 c-69.2-44.3-160.8-46.2-232.6,3.4c-36.4,25.1-62.3,59.7-76.9,98.1c-21.1,2.9-42,9.9-60.8,22.9c-62,42.9-78.4,126.4-39,189.8 c-53.4,48.9-65.7,130.4-25.1,193.3c24.1,37.3,61.9,59.8,102.5,66.5c0.8,30.4,9.9,61,28.5,87.9c50.9,73.6,151.9,92.1,225.6,41.2 c2.8-2,5-4.4,7.6-6.5c41.1,36.6,102.7,42.7,150,10c25.2-17.4,41.4-42.8,48.4-70.3c37,1.4,74.7-8,107.4-30.7 c78.7-54.3,99.8-160.6,49.5-240.8c40.4-34.1,49.1-93.6,18.1-137.6C837.4,360.7,817.8,347.9,796.4,341.5 M885.3,316.2 c16-11,20-32.9,8.9-48.9c-11-16-32.9-20-48.9-8.9c-16,11-20,32.9-8.9,48.9C847.5,323.3,869.4,327.3,885.3,316.2 M953.4,521.8 c-3-14.1-17-23.1-31.1-20c-14.1,3-23.1,17-20,31.1c3,14.1,17,23.1,31.1,20C947.4,549.8,956.4,535.9,953.4,521.8 M997.7,395.8 c-2.3-10.5-12.6-17.2-23.1-14.9c-10.5,2.3-17.2,12.6-14.9,23.1c2.3,10.5,12.6,17.2,23.1,14.9C993.3,416.6,1000,406.3,997.7,395.8"></path> <path class="st1" d="M702.2,655.3c-6-38.3-77-8.8-81.4-50.8c-6.2-59.6,82.5-188.1,75.5-238c-6.3-44.9-36.6-54.3-62.9-54.8 c-25.6-0.5-32.3,3.6-41,8.6c-5,2.9-12.2,8.6-22.1-0.8c-6.6-6.3-11-10.7-18-16.3c-3.6-2.9-9.2-6.4-18.7-7.8 c-9.5-1.4-21.8,0-29.7,3.4c-7.8,3.4-14,9.2-20.4,14.8c-6.4,5.6-22.8,23.9-38,17.1c-6.6-2.9-28.9-14.1-45.1-21.1 c-31.1-13.5-76.1,8.4-92.2,37.1c-24.1,42.8-71.6,210.7-78.8,232.9c-16.1,49.7,20.4,90.3,69.8,88c20.9-1,34.7-8.6,47.9-32.6 c7.6-13.8,79.1-200.6,84.5-209.6c3.9-6.5,16.7-15.1,27.6-9.5c10.9,5.6,13.1,17.3,11.5,28.3c-2.6,17.8-53.1,131.7-55,144.6 c-3.3,21.9,7.1,34.1,29.9,35.3c15.6,0.8,31.1-4.8,43.5-28c6.9-13,86.5-172.3,93.5-182.9c7.7-11.7,14-15.5,21.8-15.1 c6.1,0.3,15.9,1.9,13.5,20.2c-2.4,18-66.4,134.8-73.1,163.4c-9,38.3,12,77,46.6,94C613.4,686.6,710,705.1,702.2,655.3"></path> </g> </svg> 