<?xml version="1.0" encoding="UTF-8"?>
<svg
  width="18px"
  height="18px"
  viewBox="0 0 18 18"
  fill="none"
  xmlns="http://www.w3.org/2000/svg"
>
  <path
    d="M8.29289 17.7071C7.90237 17.3166 7.90237 16.6834 8.29289 16.2929L14.586 10L1 10C0.447716 10 0 9.55228 0 9C0 8.44772 0.447716 8 1 8L14.586 8L8.29289 1.70711C7.90237 1.31658 7.90237 0.683416 8.29289 0.292892C8.68342 -0.0976315 9.31658 -0.0976315 9.70711 0.292892L17.7071 8.29289L17.7803 8.37455C17.7826 8.37744 17.7849 8.38034 17.7872 8.38325L17.7071 8.29289C17.7425 8.32829 17.7747 8.36567 17.8037 8.40469C17.8215 8.42887 17.8383 8.45372 17.8539 8.47934C17.8614 8.49139 17.8685 8.50361 17.8753 8.51594C17.8862 8.53571 17.8966 8.55611 17.9063 8.5769C17.9143 8.5939 17.9218 8.6112 17.9288 8.62866C17.9367 8.64842 17.9439 8.6682 17.9505 8.68826C17.9553 8.70315 17.9599 8.71854 17.9642 8.73401C17.9702 8.75556 17.9754 8.77725 17.9798 8.79921C17.9833 8.81662 17.9864 8.83405 17.989 8.85153C17.9919 8.87058 17.9943 8.89031 17.996 8.9102C17.9981 8.934 17.9994 8.95732 17.9998 8.98065C17.9999 8.98709 18 8.99354 18 9L17.9998 9.01836C17.9994 9.04202 17.9981 9.06567 17.996 9.08925L18 9C18 9.05062 17.9962 9.10036 17.989 9.14896C17.9864 9.16595 17.9833 9.18338 17.9798 9.20073C17.9754 9.22275 17.9702 9.24444 17.9643 9.26584C17.9599 9.28146 17.9553 9.29685 17.9503 9.31214C17.9439 9.3318 17.9367 9.35158 17.9289 9.37106C17.9218 9.3888 17.9143 9.4061 17.9063 9.42322C17.8966 9.44389 17.8862 9.46429 17.8751 9.48428C17.8685 9.49639 17.8614 9.50861 17.854 9.52071C17.8383 9.54628 17.8215 9.57113 17.8037 9.59516C17.7982 9.6026 17.7927 9.60984 17.7871 9.61702C17.7623 9.64847 17.7356 9.67864 17.7071 9.70711L9.70711 17.7071C9.31658 18.0976 8.68342 18.0976 8.29289 17.7071Z"
    fill="#008294"
  />
</svg>